<svg xmlns="http://www.w3.org/2000/svg" xmlns:xlink="http://www.w3.org/1999/xlink" id="Layer_1" viewBox="0 0 81.72 92.7"><defs><clipPath id="clippath"><path d="m18.15,18.04c-6.54.73-12.44,6.64-13.18,13.18-1.7,15-1.69,30.78,0,45.78.74,6.54,6.64,12.45,13.18,13.18,15,1.7,30.78,1.7,45.78,0,6.54-.74,12.45-6.64,13.19-13.18,1.69-15,1.69-30.77,0-45.78-.74-6.54-6.64-12.45-13.18-13.18-7.5-.85-15.2-1.27-22.89-1.27s-15.39.42-22.89,1.27" style="fill:none;"></path></clipPath><linearGradient id="linear-gradient" x1="274.8" y1="507.03" x2="275.8" y2="507.03" gradientTransform="translate(-20521.7 37925.83) scale(74.69 -74.69)" gradientUnits="userSpaceOnUse"><stop offset="0" stop-color="#262262"></stop><stop offset=".06" stop-color="#242e6f"></stop><stop offset=".2" stop-color="#21488b"></stop><stop offset=".35" stop-color="#1f5ba0"></stop><stop offset=".52" stop-color="#1d6ab0"></stop><stop offset=".72" stop-color="#1c72b9"></stop><stop offset="1" stop-color="#1c75bc"></stop></linearGradient><clipPath id="clippath-1"><path d="m19.35,19.93c-6.2.7-11.79,6.3-12.49,12.49-1.51,13.37-1.58,27.39-.25,40.84.17-1.66,2.81-14.46,2.72-15.37l3.11-14.18c.94-3.6,2.42-5.68,5.21-8,2.4-2.01,3.59-3.5,4.17-4.54.65,4.23,11.04,8.32,21.7,10.32,4.59.86,9.07,1.32,12.96,1.32,8.19,0,10.68-1.87,11.24-3.58l.17-.07s-1.51,1.37,1.56,7.8c1.57,3.27,2.05,5.78,1.41,9.44,0,0-3.99,19.97-6.53,31.57,5.53-1.39,10.24-6.53,10.88-12.18,1.6-14.21,1.6-29.15,0-43.37-.7-6.2-6.29-11.79-12.49-12.49-7.11-.8-14.4-1.2-21.69-1.2s-14.58.4-21.68,1.2" style="fill:none;"></path></clipPath><linearGradient id="linear-gradient-2" x1="274.46" y1="507.16" x2="275.46" y2="507.16" gradientTransform="translate(-19412.59 35935.89) scale(70.75 -70.75)" gradientUnits="userSpaceOnUse"><stop offset="0" stop-color="#1c75bc"></stop><stop offset=".28" stop-color="#1c72b9"></stop><stop offset=".48" stop-color="#1d6ab0"></stop><stop offset=".65" stop-color="#1f5ba0"></stop><stop offset=".8" stop-color="#21488b"></stop><stop offset=".94" stop-color="#242e6f"></stop><stop offset="1" stop-color="#262262"></stop></linearGradient></defs><path d="m10.22,2h2.51l-2.55,6.79c-.6,1.63-1.26,2.26-2.65,2.26-.86,0-1.58-.23-2.23-.6l.75-1.71c.4.23.8.37,1.07.37.24,0,.41-.06.58-.28l-2.73-6.83h2.55l1.39,4.19,1.31-4.19Z" style="fill:#ed1c24;"></path><path d="m12.86,5.51v-.02c0-2.03,1.45-3.64,3.51-3.64,2.39,0,3.5,1.76,3.5,3.81,0,.15,0,.34-.01.5h-4.66c.19.76.75,1.14,1.51,1.14.59,0,1.04-.22,1.54-.71l1.35,1.12c-.67.85-1.63,1.42-3.01,1.42-2.19,0-3.73-1.47-3.73-3.62m4.73-.6c-.09-.77-.55-1.26-1.22-1.26s-1.08.49-1.21,1.26h2.43Z" style="fill:#ed1c24;"></path><path d="m20.41,8.07l.91-1.47c.8.53,1.66.8,2.38.8.42,0,.63-.13.63-.37v-.02c0-.28-.4-.4-1.13-.61-1.38-.36-2.47-.82-2.47-2.21v-.02c0-1.48,1.18-2.3,2.79-2.3,1.02,0,2.07.3,2.87.81l-.84,1.54c-.72-.41-1.5-.66-2.06-.66-.37,0-.57.14-.57.35v.02c0,.27.41.4,1.13.62,1.38.39,2.47.86,2.47,2.21v.03c0,1.53-1.14,2.33-2.84,2.33-1.17,0-2.33-.35-3.28-1.04" style="fill:#ed1c24;"></path><polygon points="30.61 2 32.99 2 33.9 5.5 34.99 1.97 36.99 1.97 38.07 5.52 39.01 2 41.37 2 39.22 9.01 37.11 9.01 35.98 5.38 34.82 9.01 32.73 9.01 30.61 2" style="fill:#ed1c24;"></polygon><path d="m41.58,5.51v-.02c0-2.03,1.45-3.64,3.51-3.64,2.39,0,3.5,1.76,3.5,3.81,0,.15,0,.34-.01.5h-4.66c.19.76.75,1.14,1.51,1.14.59,0,1.04-.22,1.54-.71l1.35,1.12c-.67.85-1.63,1.42-3.01,1.42-2.19,0-3.73-1.47-3.73-3.62m4.73-.6c-.09-.77-.55-1.26-1.22-1.26s-1.08.49-1.21,1.26h2.43Z" style="fill:#ed1c24;"></path><path d="m52.94,5.51v-.03c0-1.97,1.52-3.63,3.72-3.63,1.43,0,2.38.62,2.97,1.54l-1.65,1.23c-.35-.45-.72-.73-1.3-.73-.8,0-1.38.71-1.38,1.56v.03c0,.9.57,1.58,1.39,1.58.59,0,.96-.27,1.34-.72l1.63,1.18c-.64.95-1.57,1.59-3.09,1.59-2.11,0-3.64-1.65-3.64-3.61" style="fill:#ed1c24;"></path><path d="m60.19,6.96v-.03c0-1.45,1.09-2.19,2.73-2.19.64,0,1.27.12,1.67.27v-.12c0-.73-.45-1.15-1.39-1.15-.73,0-1.3.15-1.93.39l-.5-1.71c.78-.32,1.62-.54,2.82-.54s2.1.3,2.65.85c.53.52.75,1.24.75,2.21v4h-2.41v-.73c-.49.53-1.15.89-2.06.89-1.33,0-2.33-.77-2.33-2.15m4.43-.53v-.32c-.26-.1-.6-.18-.97-.18-.71,0-1.12.33-1.12.86v.03c0,.48.36.76.86.76.72,0,1.22-.45,1.22-1.15" style="fill:#ed1c24;"></path><path d="m68.23,2h2.44v.98c.45-.58,1.09-1.13,2.08-1.13,1.48,0,2.37.98,2.37,2.56v4.55h-2.43v-3.77c0-.77-.4-1.18-.99-1.18s-1.03.41-1.03,1.18v3.77h-2.44V2Z" style="fill:#ed1c24;"></path><g style="clip-path:url(#clippath);"><rect x="3.27" y="16.77" width="75.54" height="75.12" style="fill:url(#linear-gradient);"></rect></g><g style="clip-path:url(#clippath-1);"><rect x="5.28" y="18.73" width="71.54" height="69.25" style="fill:url(#linear-gradient-2);"></rect></g><path d="m34.93,67.23h-10.92v4.98h5.95v2.38h-7.02c-2.65,0-4.8-2.15-4.8-4.8s2.15-4.8,4.8-4.8h11.99v-4.98h-11.99c-5.4,0-9.79,4.39-9.79,9.79s4.39,9.79,9.79,9.79h11.99v-.03h.02v-12.3h-.02Z" style="fill:#fff;"></path><polygon points="38.07 64.99 49.95 64.99 38.07 73.93 38.07 79.55 58.45 79.55 58.45 74.57 45.51 74.57 58.5 64.8 58.5 60.01 38.07 60.01 38.07 64.99" style="fill:#fff;"></polygon><rect x="61.81" y="60.01" width="4.99" height="19.53" style="fill:#fff;"></rect><path d="m31.49,58.22s0,0,0,0h0s0,0,0,0" style="fill:#545557;"></path><path d="m68.12,44.72c-1.39,3.21-13.1,3.36-26.7.25-10.61-2.42-19.33-6.13-22.57-9.31.67,4.11,10.44,9.74,23.17,13.12,13.88,3.69,26.02,3.32,27.12-.83.26-.98-.12-2.08-1.03-3.23" style="fill:#fff;"></path><path d="m56.05,37.79c-1.31-.36-3.81-.24-5.58.27-1.77.52-2.14,1.22-.82,1.58,1.32.36,3.82.24,5.58-.28,1.76-.51,2.13-1.22.81-1.58" style="fill:#fff;"></path><path d="m47.33,36.22c-1.11-.3-2.8-.32-3.78-.04-.97.28-.85.75.26,1.06,1.12.3,2.81.32,3.78.04.97-.29.85-.76-.26-1.06" style="fill:#fff;"></path><path d="m61.59,32.38c-4.02-1.93-9.51-3.61-15.47-4.72-4.59-.86-9.08-1.32-12.97-1.32-8.75,0-10.99,2.13-11.32,3.92-.85,4.54,10.27,9.09,21.69,11.23,4.59.86,9.07,1.32,12.96,1.32,8.76,0,10.99-2.14,11.33-3.92.4-2.14-1.7-4.33-6.23-6.51m-6.56,8.33c-2.03.26-4.64.13-6.49-.38l-8.57-2.34c-2.35-.64-2.6-1.65-.55-2.24l2.47-.72c2.05-.59,5.62-.55,7.97.09l8.57,2.34c2.35.64,2.6,1.64.55,2.24l-2.47.72c-.34.1-.68.17-1.49.29m10.74-2.21c-.08.41-.66.9-1.89,1.33.92-1.35-8.69-9.93-33.46-10.19-2.31-.03-5.49.64-6.53,1.39-.04-.14-.04-.27-.02-.39.17-.9,2.78-2.22,9.28-2.22,3.77,0,8.12.44,12.59,1.28,5.78,1.08,11.09,2.7,14.95,4.56,4.26,2.04,5.2,3.63,5.08,4.25" style="fill:#fff;"></path></svg>